control3min_grf.mot
version=1
nRows=10
nColumns 19
inDegrees=yes
endheader
time	1_ground_force_vx	1_ground_force_vy	1_ground_force_vz	1_ground_force_px	1_ground_force_py	1_ground_force_pz	1_ground_torque_x	1_ground_torque_y	1_ground_torque_z	2_ground_force_vx	2_ground_force_vy	2_ground_force_vz	2_ground_force_px	2_ground_force_py	2_ground_force_pz	2_ground_torque_x	2_ground_torque_y	2_ground_torque_z
            1.253500	           -0.244410	           33.364834	           -3.524906	           -0.204124	            0.006408	           -0.447210	            0.001655	           -0.225935	            0.023869	            1.174313	           25.586958	            4.079682	           -0.192456	            0.005711	           -0.675903	           -0.000141	           -0.003072	           -0.000490
            1.254000	           -0.244441	           32.283633	           -3.621256	           -0.205322	            0.006426	           -0.451450	            0.001285	           -0.169658	            0.019031	            1.130101	           24.850363	            4.030146	           -0.193805	            0.005711	           -0.677194	            0.001660	            0.036508	            0.005921
            1.254500	           -0.243560	           31.200859	           -3.350758	           -0.201186	            0.006416	           -0.448870	            0.001083	           -0.138700	            0.014895	            1.367653	           23.930634	            3.979833	           -0.195087	            0.005716	           -0.679937	           -0.001248	           -0.021841	           -0.003632
            1.255000	           -0.105591	           30.659499	           -3.215850	           -0.203208	            0.006408	           -0.447220	            0.000219	           -0.063663	            0.006678	            0.903806	           22.639905	            3.975432	           -0.194895	            0.005718	           -0.680226	            0.000535	            0.013394	            0.002352
            1.255500	           -0.380730	           30.479377	           -3.261797	           -0.204814	            0.006389	           -0.442833	            0.001384	           -0.110820	            0.011860	            0.907835	           21.534680	            4.065346	           -0.197672	            0.005695	           -0.676637	            0.002088	            0.049532	            0.009351
            1.256000	           -0.564051	           29.578210	           -3.311062	           -0.206795	            0.006378	           -0.440333	            0.002286	           -0.119870	            0.013419	            0.866282	           20.061491	            4.013182	           -0.189410	            0.005714	           -0.673562	            0.001627	            0.037685	            0.007539
            1.256500	           -0.426064	           28.315983	           -3.225103	           -0.207648	            0.006410	           -0.447775	            0.002640	           -0.175445	            0.019983	            0.679485	           19.877169	            3.871820	           -0.193353	            0.005732	           -0.682562	           -0.000111	           -0.003256	           -0.000634
            1.257000	           -0.654659	           27.413824	           -3.044975	           -0.205288	            0.006389	           -0.442770	            0.005453	           -0.228338	            0.025363	            0.541614	           19.139900	            3.916180	           -0.193747	            0.005727	           -0.681665	           -0.000300	           -0.010606	           -0.002170
            1.257500	           -0.654785	           25.611954	           -3.236128	           -0.204888	            0.006422	           -0.450417	            0.005659	           -0.221347	            0.027968	            0.590396	           18.588127	            3.773404	           -0.196743	            0.005732	           -0.686226	           -0.000092	           -0.002902	           -0.000589
            1.258000	           -0.516768	           25.430928	           -3.053819	           -0.206864	            0.006391	           -0.443487	            0.002518	           -0.123919	            0.014881	            0.643207	           16.931128	            3.720543	           -0.195987	            0.005712	           -0.679682	           -0.001941	           -0.051100	           -0.011229
